<svg xmlns="http://www.w3.org/2000/svg" width="100mm" height="28mm" viewBox="0 20 120 23"><defs><path id="b" d="M180.54 315.829h202.799v62.015H180.54z"/><path id="a" d="M146.994 293.631h556.03v247.558h-556.03z"/></defs><text xml:space="preserve" style="white-space:pre;shape-inside:url(#a);display:inline;fill:#fff" transform="matrix(.26458 0 0 .26458 -34.565 -63.828)"><tspan x="146.994" y="342.158"><tspan style="font-size:53.3333px">    Foto        tudio</tspan>
</tspan></text><text xml:space="preserve" style="font-size:53.3333px;white-space:pre;shape-inside:url(#b);display:inline;fill:#fff" transform="matrix(.26458 0 0 .26458 18.69 -51.698)"><tspan x="190.541" y="364.357"> andra</tspan></text><a transform="rotate(-4.681 -695.473 449.838)"><path d="M101.547 60.716c.049-.098-1.393-1.117-4.476-1.979-3.082-.862-8.02-1.515-13.615.538-4.969 1.827-10.497 6.072-13.227 12.874-2.168 5.419-2.348 12.35.683 18.574 2.664 5.457 7.792 10.132 14.276 12.023 4.312 1.243 8.921 1.243 13.472.508 4.159-.666 8.128-1.859 12.207-3.085-.149.045.81-.243.66-.199 4.305-1.284 8.419-2.464 12.624-2.949 4.365-.497 8.683-.24 12.495 1.238 5.622 2.154 9.838 6.9 11.59 12.045 2.014 5.885.921 12.182-1.824 16.7-3.456 5.706-9.256 8.654-14.085 9.401-5.457.85-9.91-.727-12.63-2.108-2.72-1.38-3.949-2.564-4.022-2.484-.073.08 1.017 1.432 3.724 3.028 2.706 1.597 7.271 3.445 13.09 2.716 5.151-.65 11.396-3.623 15.25-9.732 3.054-4.854 4.338-11.612 2.206-18.093-1.874-5.67-6.398-10.86-12.596-13.288-4.192-1.625-8.829-1.946-13.427-1.412-4.42.507-8.658 1.705-12.974 3.001l-.662.198c-4.085 1.224-7.961 2.401-11.944 3.042-4.352.694-8.666.733-12.613-.405-5.918-1.683-10.706-5.968-13.192-10.947-2.845-5.679-2.776-12.145-.844-17.199 2.423-6.36 7.536-10.495 12.183-12.352 5.232-2.096 10.002-1.674 13.045-1.025 3.044.65 4.577 1.468 4.626 1.37z" class="UnoptimicedTransforms" style="fill:#fff;stroke:none;stroke-width:.264583" transform="matrix(.19658 .28649 -.29077 .1715 97.45 45.821)"/></a><path d="M88.675 76.405c.023-.162-4.52-1.816-11.073 1.461a18.406 18.406 0 0 0-8.063 7.992 18.64 18.64 0 0 0-1.824 11.29 18.769 18.769 0 0 0 5.181 10.262c3.779 3.784 9.18 5.971 15.04 6.513 5.371.505 10.715-.232 16.282-1.264 4.44-.813 9.163-1.827 13.751-2.214a48.35 48.35 0 0 1 2.065-.13c5.426-.215 10.74.568 15.108 3.052 5.294 2.98 8.845 8.301 9.907 13.709 1.217 6.153-.67 12.307-3.986 16.51-4.158 5.284-10.29 7.574-15.235 7.79-11.1.496-16.076-6.499-16.233-6.357-.079.071.892 1.537 3.45 3.408 2.558 1.871 6.937 4.175 12.817 4.08 5.242-.09 11.8-2.358 16.377-7.978 3.647-4.487 5.764-11.055 4.506-17.78-1.114-5.912-4.9-11.686-10.693-14.989-4.778-2.698-10.433-3.583-16.098-3.329-.715.031-1.43.078-2.143.139-4.756.403-9.528 1.43-13.933 2.258-5.523 1.026-10.68 1.784-15.78 1.324-5.532-.509-10.593-2.453-14.055-5.891a17.363 17.363 0 0 1-4.885-9.348c-.66-3.825.057-7.55 1.488-10.502 1.808-3.735 4.708-6.28 7.376-7.742 6.097-3.345 10.63-2.101 10.653-2.264z" class="UnoptimicedTransforms" style="fill:#fff;stroke:none;stroke-width:.264583" transform="matrix(.2531 .25755 -.30551 .20765 67.408 -19.352)"/></svg>
